HIERARCHY
ROOT Hips
{
 OFFSET 0.000000 0.000000 0.000000
 CHANNELS 6 Xposition Yposition Zposition Yrotation Xrotation Zrotation
 JOINT Chest
 {
  OFFSET 0.000000 9.585900 0.002600
  CHANNELS 3 Yrotation Xrotation Zrotation
  JOINT Chest2
  {
   OFFSET 0.000000 9.601200 -0.005300
   CHANNELS 3 Yrotation Xrotation Zrotation
   JOINT Chest3
   {
    OFFSET 0.000000 9.561800 0.000000
    CHANNELS 3 Yrotation Xrotation Zrotation
    JOINT Chest4
    {
     OFFSET 0.000000 9.552100 0.000000
     CHANNELS 3 Yrotation Xrotation Zrotation
     JOINT Neck
     {
      OFFSET 0.000000 14.453000 0.000000
      CHANNELS 3 Yrotation Xrotation Zrotation
      JOINT Head
      {
       OFFSET 0.000000 8.936500 -0.011300
       CHANNELS 3 Yrotation Xrotation Zrotation
       End Site
       {
        OFFSET 0.000000 17.073600 -0.006000
       }
      }
     }
     JOINT RightCollar
     {
      OFFSET -2.921100 9.558500 0.000000
      CHANNELS 3 Yrotation Xrotation Zrotation
      JOINT RightShoulder
      {
       OFFSET -13.519700 0.000000 0.000000
       CHANNELS 3 Yrotation Xrotation Zrotation
       JOINT RightElbow
       {
        OFFSET 0.000000 -29.696600 0.000000
        CHANNELS 3 Yrotation Xrotation Zrotation
        JOINT RightWrist
        {
         OFFSET 0.000000 -24.004700 0.000000
         CHANNELS 3 Yrotation Xrotation Zrotation
         End Site
         {
          OFFSET 0.000000 -17.728500 0.000000
         }
        }
       }
      }
     }
     JOINT LeftCollar
     {
      OFFSET 2.921100 9.558500 0.000000
      CHANNELS 3 Yrotation Xrotation Zrotation
      JOINT LeftShoulder
      {
       OFFSET 13.519700 0.000000 0.000000
       CHANNELS 3 Yrotation Xrotation Zrotation
       JOINT LeftElbow
       {
        OFFSET 0.000000 -29.696600 0.000000
        CHANNELS 3 Yrotation Xrotation Zrotation
        JOINT LeftWrist
        {
         OFFSET 0.000000 -24.004700 0.000000
         CHANNELS 3 Yrotation Xrotation Zrotation
         End Site
         {
          OFFSET 0.000000 -17.728500 0.000000
         }
        }
       }
      }
     }
    }
   }
  }
 }
 JOINT RightHip
 {
  OFFSET -7.771700 -0.012900 -0.001300
  CHANNELS 3 Yrotation Xrotation Zrotation
  JOINT RightKnee
  {
   OFFSET 0.000000 -40.869800 0.001200
   CHANNELS 3 Yrotation Xrotation Zrotation
   JOINT RightAnkle
   {
    OFFSET 0.000000 -39.717900 0.002100
    CHANNELS 3 Yrotation Xrotation Zrotation
    JOINT RightToe
    {
     OFFSET 0.000000 -4.965400 11.033500
     CHANNELS 3 Yrotation Xrotation Zrotation
     End Site
     {
      OFFSET 0.000000 -1.423100 5.872300
     }
    }
   }
  }
 }
 JOINT LeftHip
 {
  OFFSET 7.771700 -0.012900 -0.001300
  CHANNELS 3 Yrotation Xrotation Zrotation
  JOINT LeftKnee
  {
   OFFSET 0.000000 -40.869800 0.001200
   CHANNELS 3 Yrotation Xrotation Zrotation
   JOINT LeftAnkle
   {
    OFFSET 0.000000 -39.717900 0.002100
    CHANNELS 3 Yrotation Xrotation Zrotation
    JOINT LeftToe
    {
     OFFSET 0.000000 -4.965400 11.033500
     CHANNELS 3 Yrotation Xrotation Zrotation
     End Site
     {
      OFFSET 0.000000 -1.423100 5.872300
     }
    }
   }
  }
 }
}
MOTION
Frames: 11
Frame Time: 0.008333
0.000000 85.388000 0.000000 0.000000 -5.767877 0.000000 0.000000 11.653817 0.000000 0.000000 -5.885947 0.000000 0.000000 -0.000000 0.000000 0.000000 -0.000000 0.000000 0.000000 12.528835 0.000000 0.000000 0.711642 0.000000 0.000000 -0.000000 0.000000 0.000000 0.000000 -90.000000 0.000000 -2.309062 0.000000 0.000000 2.309062 0.000000 0.000000 -0.000000 0.000000 0.000000 -0.000000 90.000000 0.000000 -2.309062 0.000000 0.000000 2.309062 0.000000 0.000000 8.520406 0.000000 0.000000 1.905762 0.000000 -0.000000 -4.658285 0.000000 0.000000 -0.000000 0.000000 0.000000 8.520406 0.000000 0.000000 1.905762 0.000000 -0.000000 -4.658285 0.000000 0.000000 -0.000000 0.000000
-142.306669 49.054906 19.181071 175.598321 -32.532783 -3.629739 0.769980 19.679036 2.632863 0.042777 2.429011 0.260037 0.105924 3.958641 0.461189 0.625802 17.004775 1.997733 7.402092 21.548792 -2.653805 14.095299 4.901068 -6.842489 -2.602330 -2.949201 -2.922722 1.822015 -7.550039 -12.803920 -45.593961 -47.880500 94.639642 3.964925 7.429616 -13.836397 -1.206933 -3.928226 3.020162 5.152003 -1.774396 11.975716 68.075842 -44.184890 -105.849175 15.270084 -3.025820 21.063714 -4.050865 -52.461083 -7.616606 -151.799248 82.767848 -139.406433 -30.359430 -2.975291 -4.463383 -0.128952 -11.701672 1.143569 -14.172969 -53.934957 19.339376 -74.205166 65.664833 -78.984272 30.634025 6.759202 15.336195 0.003676 -0.291188 -0.005898
-142.308431 49.054840 19.179859 175.606510 -32.534708 -3.621797 0.766346 19.673534 2.630828 0.056489 2.409811 0.276331 0.094164 3.965953 0.450452 0.624560 16.997930 2.003125 7.427704 21.556999 -2.736355 14.159078 4.936864 -6.996363 -2.608694 -2.949104 -2.917213 1.787092 -7.553584 -12.797173 -45.712332 -47.850702 94.745817 3.964240 7.427312 -13.796225 -1.198617 -3.977365 3.011588 4.953780 -1.700705 12.036629 67.859020 -44.091997 -105.833670 15.275918 -2.982362 21.033452 -4.041591 -52.459226 -7.634324 -151.809687 82.759649 -139.421005 -30.352779 -2.994414 -4.452001 -0.133035 -11.686637 1.139646 -14.172736 -53.933568 19.319769 -74.199144 65.669925 -78.981967 30.632532 6.758766 15.339105 0.003904 -0.291197 -0.009867
-142.310273 49.054633 19.178710 175.608598 -32.536505 -3.611440 0.762957 19.672732 2.622206 0.065428 2.396538 0.286564 0.094808 3.960667 0.451823 0.644453 16.956628 2.030422 7.425379 21.599572 -2.842241 14.216872 4.971967 -7.169357 -2.632145 -2.938305 -2.915910 1.749232 -7.530501 -12.800669 -45.836309 -47.808392 94.860452 3.963747 7.424518 -13.738992 -1.210998 -3.995171 2.989131 4.760498 -1.625854 12.093800 67.654514 -44.009702 -105.813311 15.275257 -2.904476 20.968888 -4.027233 -52.458472 -7.653190 -151.814009 82.754615 -139.426612 -30.349800 -3.007368 -4.446283 -0.134017 -11.676019 1.137628 -14.171017 -53.932173 19.301656 -74.199642 65.668097 -78.983958 30.633374 6.760916 15.340255 0.006007 -0.292556 -0.014572
-142.312054 49.053829 19.178448 175.610567 -32.532647 -3.603587 0.769006 19.655799 2.629213 0.065536 2.392947 0.287930 0.095882 3.955387 0.453550 0.637830 16.962308 2.026626 7.453229 21.590474 -2.941284 14.267377 5.003123 -7.364712 -2.640348 -2.948268 -2.904777 1.716731 -7.528945 -12.787533 -45.967278 -47.753145 94.985196 3.963044 7.418031 -13.667294 -1.202517 -4.043755 2.992263 4.586327 -1.563830 12.141428 67.461836 -43.939584 -105.791310 15.265174 -2.798493 20.869099 -4.015596 -52.462217 -7.668064 -151.823843 82.751666 -139.436474 -30.346235 -3.028030 -4.441957 -0.135350 -11.657406 1.136267 -14.175028 -53.935626 19.288221 -74.193294 65.675973 -78.973462 30.624807 6.765583 15.331460 0.011003 -0.291799 -0.014377
-142.312730 49.052997 19.178459 175.615086 -32.528489 -3.605820 0.786151 19.625744 2.663459 0.048944 2.410025 0.268011 0.104099 3.942979 0.463615 0.650661 16.943586 2.044019 7.451638 21.601208 -3.066257 14.310196 5.025934 -7.584748 -2.670413 -2.936151 -2.910941 1.702861 -7.514625 -12.790557 -46.139027 -47.679056 95.137279 3.961198 7.402366 -13.577977 -1.222299 -4.037701 2.973341 4.438465 -1.527952 12.182761 67.286673 -43.881926 -105.768038 15.242052 -2.675369 20.728943 -4.015996 -52.465961 -7.670238 -151.830273 82.750152 -139.441152 -30.343326 -3.034794 -4.441021 -0.137239 -11.651179 1.136065 -14.186145 -53.938712 19.288241 -74.195244 65.672607 -78.967048 30.618616 6.770826 15.320043 0.018280 -0.290140 -0.011126
-142.313730 49.052229 19.178426 175.624640 -32.525115 -3.610679 0.791222 19.612556 2.683271 0.040968 2.411964 0.260448 0.115004 3.932435 0.474628 0.665040 16.924349 2.063998 7.441675 21.604775 -3.207284 14.344152 5.035793 -7.830426 -2.705022 -2.919929 -2.924728 1.659875 -7.518996 -12.751314 -46.255208 -47.608254 95.250058 3.959361 7.375792 -13.468480 -1.245216 -4.032696 2.953314 4.305476 -1.484220 12.213248 67.137548 -43.837611 -105.745667 15.206689 -2.538056 20.542880 -4.022101 -52.467594 -7.664213 -151.820146 82.750339 -139.436625 -30.344358 -3.044438 -4.433115 -0.139547 -11.639294 1.135699 -14.201290 -53.940855 19.287787 -74.193369 65.672195 -78.958041 30.610654 6.775584 15.309520 0.024735 -0.287679 -0.007647
-142.315743 49.051305 19.178659 175.626692 -32.520251 -3.607134 0.795201 19.603143 2.688950 0.066218 2.391627 0.287734 0.100103 3.939217 0.460552 0.664687 16.920894 2.069635 7.442091 21.582251 -3.354770 14.368342 5.030391 -8.103380 -2.729139 -2.906793 -2.937961 1.611507 -7.535021 -12.695687 -46.375449 -47.523576 95.364106 3.960159 7.339568 -13.338303 -1.237655 -4.111466 2.993919 4.174834 -1.362406 12.189561 67.013557 -43.806217 -105.729742 15.163671 -2.393581 20.320359 -4.015452 -52.471964 -7.669481 -151.788533 82.749016 -139.407540 -30.342052 -3.055429 -4.433477 -0.139796 -11.625237 1.139222 -14.217270 -53.948181 19.276560 -74.208808 65.680427 -78.965142 30.616857 6.777706 15.294085 0.016690 -0.290742 -0.003820
-142.316911 49.050636 19.178961 175.632204 -32.515747 -3.611732 0.799908 19.594514 2.702210 0.076247 2.381646 0.297710 0.101479 3.932938 0.463019 0.646399 16.933881 2.059005 7.455915 21.532873 -3.509155 14.384662 5.010906 -8.404525 -2.729901 -2.924283 -2.926302 1.565452 -7.526288 -12.660647 -46.532744 -47.420387 95.500240 3.958541 7.297248 -13.186030 -1.222193 -4.175396 3.041003 4.093458 -1.270861 12.158968 66.898860 -43.783877 -105.713469 15.114819 -2.254331 20.078043 -4.013972 -52.473643 -7.664527 -151.724819 82.748474 -139.348430 -30.339277 -3.061287 -4.427364 -0.144013 -11.611970 1.141337 -14.227706 -53.952045 19.278991 -74.215540 65.673528 -78.962515 30.607818 6.781355 15.281668 0.026772 -0.287910 0.000834
-142.317996 49.050225 19.179238 175.641516 -32.511137 -3.619910 0.811053 19.579894 2.728551 0.067520 2.383605 0.289998 0.113190 3.917386 0.475246 0.653248 16.925164 2.070159 7.433989 21.497685 -3.692650 14.395337 4.980525 -8.735159 -2.743834 -2.958367 -2.900984 1.510591 -7.475022 -12.649562 -46.709170 -47.315215 95.646480 3.946825 7.248284 -13.012521 -1.234096 -4.204232 3.067311 4.055409 -1.202923 12.119523 66.840565 -43.774419 -105.702923 15.077981 -2.094914 19.824933 -4.005287 -52.469346 -7.661831 -151.634354 82.748610 -139.249421 -30.347998 -3.083682 -4.429513 -0.132046 -11.587051 1.148379 -14.248442 -53.956123 19.279108 -74.213705 65.676196 -78.954460 30.615272 6.786389 15.281474 0.024410 -0.289065 -0.005448
-142.321080 49.049420 19.180193 175.651981 -32.499523 -3.618345 0.816969 19.555507 2.744002 0.072877 2.374348 0.299330 0.098704 3.927000 0.460718 0.692267 16.878771 2.110992 7.387016 21.481659 -3.901697 14.402732 4.941731 -9.095404 -2.784090 -2.940935 -2.907901 1.454020 -7.452468 -12.614738 -46.899404 -47.212279 95.802668 3.931153 7.188085 -12.822135 -1.259575 -4.214105 3.081076 3.998420 -1.110974 12.086303 66.827797 -43.761979 -105.713825 15.031819 -1.995815 19.607758 -3.991720 -52.477761 -7.677777 -151.610384 82.749993 -139.221812 -30.351134 -3.097417 -4.428607 -0.131181 -11.569674 1.152432 -14.262681 -53.970290 19.265685 -74.216036 65.684993 -78.950047 30.612513 6.792165 15.274808 0.028265 -0.289955 -0.008672
